<svg version="1.1" xmlns="http://www.w3.org/2000/svg" xmlns:xlink="http://www.w3.org/1999/xlink" width="800" height="600" viewBox="0 0 800 600"><defs/><g transform="scale(1,1)"><g transform="scale(1,1)"><rect fill="rgb(255,255,255)" stroke="none" x="0" y="0" width="800" height="600" fill-opacity="1"/></g><g transform="translate(400,300)"><path fill="none" stroke="rgb(0,0,0)" paint-order="fill stroke markers" d=" M -40 -40 C -33.98387307941448 240.64507682342082 240.64507682342082 33.98387307941448 -40 40" stroke-opacity="1" stroke-linecap="round" stroke-miterlimit="10" stroke-width="2"/><path fill="none" stroke="rgb(0,0,0)" paint-order="fill stroke markers" d=" M -40 -40 C -34.81520823610481 207.39167055580765 207.39167055580765 34.81520823610481 -40 40" stroke-opacity="1" stroke-linecap="round" stroke-miterlimit="10" stroke-width="2"/><path fill="none" stroke="rgb(0,0,0)" paint-order="fill stroke markers" d=" M -40 -40 C -33.391872073407285 264.3251170637086 264.3251170637086 33.391872073407285 -40 40" stroke-opacity="1" stroke-linecap="round" stroke-miterlimit="10" stroke-width="2"/><path fill="none" stroke="rgb(0,0,0)" paint-order="fill stroke markers" d=" M -40 -40 C -35.90744084154721 163.70236633811146 163.70236633811146 35.90744084154721 -40 40" stroke-opacity="1" stroke-linecap="round" stroke-miterlimit="10" stroke-width="2"/><path fill="none" stroke="rgb(0,0,0)" paint-order="fill stroke markers" d=" M -40 -40 C -35.70724014833104 171.71039406675845 171.71039406675845 35.70724014833104 -40 40" stroke-opacity="1" stroke-linecap="round" stroke-miterlimit="10" stroke-width="2"/><path fill="none" stroke="rgb(0,0,0)" paint-order="fill stroke markers" d=" M -40 -40 C -35.136604229337536 194.53583082649857 194.53583082649857 35.136604229337536 -40 40" stroke-opacity="1" stroke-linecap="round" stroke-miterlimit="10" stroke-width="2"/><path fill="none" stroke="rgb(0,0,0)" paint-order="fill stroke markers" d=" M -40 -40 C -34.845155334915034 206.19378660339862 206.19378660339862 34.845155334915034 -40 40" stroke-opacity="1" stroke-linecap="round" stroke-miterlimit="10" stroke-width="2"/><path fill="none" stroke="rgb(0,0,0)" paint-order="fill stroke markers" d=" M -40 -40 C -34.61719924991485 215.3120300034061 215.3120300034061 34.61719924991485 -40 40" stroke-opacity="1" stroke-linecap="round" stroke-miterlimit="10" stroke-width="2"/><path fill="none" stroke="rgb(0,0,0)" paint-order="fill stroke markers" d=" M -40 -40 C -34.94350126653444 202.2599493386224 202.2599493386224 34.94350126653444 -40 40" stroke-opacity="1" stroke-linecap="round" stroke-miterlimit="10" stroke-width="2"/><path fill="none" stroke="rgb(0,0,0)" paint-order="fill stroke markers" d=" M -40 -40 C -33.52161168528255 259.13553258869797 259.13553258869797 33.52161168528255 -40 40" stroke-opacity="1" stroke-linecap="round" stroke-miterlimit="10" stroke-width="2"/><path fill="none" stroke="rgb(0,0,0)" paint-order="fill stroke markers" d=" M -40 -40 C -42.477947411243804 -99.11789644975215 -99.11789644975215 42.477947411243804 -40 40" stroke-opacity="1" stroke-linecap="round" stroke-miterlimit="10" stroke-width="2"/><path fill="none" stroke="rgb(0,0,0)" paint-order="fill stroke markers" d=" M -40 -40 C -46.10145398939494 -244.05815957579762 -244.05815957579762 46.10145398939494 -40 40" stroke-opacity="1" stroke-linecap="round" stroke-miterlimit="10" stroke-width="2"/><path fill="none" stroke="rgb(0,0,0)" paint-order="fill stroke markers" d=" M -40 -40 C -45.10200723365415 -204.08028934616596 -204.08028934616596 45.10200723365415 -40 40" stroke-opacity="1" stroke-linecap="round" stroke-miterlimit="10" stroke-width="2"/><path fill="none" stroke="rgb(0,0,0)" paint-order="fill stroke markers" d=" M -40 -40 C -41.976024364703335 -79.0409745881334 -79.0409745881334 41.976024364703335 -40 40" stroke-opacity="1" stroke-linecap="round" stroke-miterlimit="10" stroke-width="2"/><path fill="none" stroke="rgb(0,0,0)" paint-order="fill stroke markers" d=" M -40 -40 C -44.381127313827164 -175.24509255308658 -175.24509255308658 44.381127313827164 -40 40" stroke-opacity="1" stroke-linecap="round" stroke-miterlimit="10" stroke-width="2"/><path fill="none" stroke="rgb(0,0,0)" paint-order="fill stroke markers" d=" M -40 -40 C -47.23504369670991 -289.40174786839634 -289.40174786839634 47.23504369670991 -40 40" stroke-opacity="1" stroke-linecap="round" stroke-miterlimit="10" stroke-width="2"/><path fill="none" stroke="rgb(0,0,0)" paint-order="fill stroke markers" d=" M -40 -40 C -42.97529560804833 -119.01182432193309 -119.01182432193309 42.97529560804833 -40 40" stroke-opacity="1" stroke-linecap="round" stroke-miterlimit="10" stroke-width="2"/><path fill="none" stroke="rgb(0,0,0)" paint-order="fill stroke markers" d=" M -40 -40 C -45.44323348032776 -217.7293392131105 -217.7293392131105 45.44323348032776 -40 40" stroke-opacity="1" stroke-linecap="round" stroke-miterlimit="10" stroke-width="2"/><path fill="none" stroke="rgb(0,0,0)" paint-order="fill stroke markers" d=" M -40 -40 C -42.82509227574337 -113.00369102973491 -113.00369102973491 42.82509227574337 -40 40" stroke-opacity="1" stroke-linecap="round" stroke-miterlimit="10" stroke-width="2"/><path fill="none" stroke="rgb(0,0,0)" paint-order="fill stroke markers" d=" M -40 -40 C -44.731356441625394 -189.25425766501576 -189.25425766501576 44.731356441625394 -40 40" stroke-opacity="1" stroke-linecap="round" stroke-miterlimit="10" stroke-width="2"/></g></g></svg>